<svg id="color" xmlns="http://www.w3.org/2000/svg" viewBox="0 0 2071.47 467.21"><defs><style>.cls-1{fill:#e68a51;}.cls-2{fill:#080b10;}.cls-3,.cls-5,.cls-6,.cls-9{fill:#fff;}.cls-4{fill:#c6c8c8;}.cls-16,.cls-18,.cls-5,.cls-9{font-size:36px;}.cls-16,.cls-17,.cls-5,.cls-6{font-family:HelveticaNeue-Bold, Helvetica Neue;font-weight:700;}.cls-17,.cls-6{font-size:32px;}.cls-7{letter-spacing:-0.07em;}.cls-8{letter-spacing:-0.09em;}.cls-18,.cls-9{font-family:HelveticaNeue, Helvetica Neue;}.cls-10{letter-spacing:-0.1em;}.cls-11{letter-spacing:0.18em;}.cls-12{letter-spacing:0.02em;}.cls-13{letter-spacing:-0.16em;}.cls-14{letter-spacing:0em;}.cls-15{letter-spacing:0.2em;}.cls-16,.cls-17,.cls-18{fill:#060a0f;}</style></defs><title>color</title><rect class="cls-1" x="-0.26" width="518.3" height="467.21"/><rect class="cls-2" x="517.31" width="518.3" height="467.21"/><rect class="cls-3" x="1034.88" width="518.3" height="467.21"/><rect class="cls-4" x="1553.17" width="518.3" height="467.21"/><text class="cls-5" transform="translate(128.41 259.31)">240<tspan x="0" y="43.2">130</tspan><tspan x="0" y="86.4">55</tspan></text><text class="cls-5" transform="translate(192.46 110.29)">#F08237</text><text class="cls-6" transform="translate(143.42 67.58)"><tspan class="cls-7">P</tspan><tspan class="cls-8" x="18.98" y="0">A</tspan><tspan x="37.95" y="0">TONE 1495 C</tspan></text><text class="cls-9" transform="translate(48.18 259.31)">R <tspan class="cls-10" x="34.67" y="0"> </tspan><tspan x="41.08" y="0">:</tspan><tspan x="0" y="43.2" xml:space="preserve">V  :</tspan><tspan x="0" y="86.4">B</tspan><tspan class="cls-11" x="24.66" y="86.4"> </tspan><tspan class="cls-12" x="41.15" y="86.4">:</tspan></text><text class="cls-5" transform="translate(377.33 253.63)">0%<tspan x="0" y="43.2">58%</tspan><tspan x="0" y="86.4">82%</tspan><tspan x="0" y="129.6">0%</tspan></text><text class="cls-9" transform="translate(289.05 253.63)"><tspan xml:space="preserve">C  :</tspan><tspan x="0" y="43.2">M </tspan><tspan class="cls-13" x="41.36" y="43.2"> </tspan><tspan class="cls-14" x="45.61" y="43.2">:</tspan><tspan x="0" y="86.4">J </tspan><tspan class="cls-15" x="28.69" y="86.4"> </tspan><tspan x="45.9" y="86.4">:</tspan><tspan x="-0.72" y="129.6" xml:space="preserve">N  :</tspan></text><text class="cls-5" transform="translate(647.65 259.31)">22<tspan x="0" y="43.2">22</tspan><tspan x="0" y="86.4">22</tspan></text><text class="cls-5" transform="translate(712.36 110.29)">#161616</text><text class="cls-6" transform="translate(595.15 67.58)"><tspan class="cls-7">P</tspan><tspan class="cls-8" x="18.98" y="0">A</tspan><tspan x="37.95" y="0">TONE Neutral Black C</tspan></text><text class="cls-9" transform="translate(567.41 259.31)">R <tspan class="cls-10" x="34.67" y="0"> </tspan><tspan x="41.08" y="0">:</tspan><tspan x="0" y="43.2" xml:space="preserve">V  :</tspan><tspan x="0" y="86.4">B</tspan><tspan class="cls-11" x="24.66" y="86.4"> </tspan><tspan class="cls-12" x="41.15" y="86.4">:</tspan></text><text class="cls-5" transform="translate(896.57 253.63)">77%<tspan x="0" y="43.2">68%</tspan><tspan x="0" y="86.4">61%</tspan><tspan x="0" y="129.6">85%</tspan></text><text class="cls-9" transform="translate(808.29 253.63)"><tspan xml:space="preserve">C  :</tspan><tspan x="0" y="43.2">M </tspan><tspan class="cls-13" x="41.36" y="43.2"> </tspan><tspan class="cls-14" x="45.61" y="43.2">:</tspan><tspan x="0" y="86.4">J </tspan><tspan class="cls-15" x="28.69" y="86.4"> </tspan><tspan x="45.9" y="86.4">:</tspan><tspan x="-0.72" y="129.6" xml:space="preserve">N  :</tspan></text><text class="cls-16" transform="translate(1163.4 259.31)">255<tspan x="0" y="43.2">255</tspan><tspan x="0" y="86.4">255</tspan></text><text class="cls-16" transform="translate(1224.12 110.29)">#FFFFFF</text><text class="cls-17" transform="translate(1187.31 67.58)"><tspan class="cls-7">P</tspan><tspan class="cls-8" x="18.98" y="0">A</tspan><tspan x="37.95" y="0">TONE 663 C</tspan></text><text class="cls-18" transform="translate(1083.17 259.31)">R <tspan class="cls-10" x="34.67" y="0"> </tspan><tspan x="41.08" y="0">:</tspan><tspan x="0" y="43.2" xml:space="preserve">V  :</tspan><tspan x="0" y="86.4">B</tspan><tspan class="cls-11" x="24.66" y="86.4"> </tspan><tspan class="cls-12" x="41.15" y="86.4">:</tspan></text><text class="cls-16" transform="translate(1412.32 253.63)">0%<tspan x="0" y="43.2">0%</tspan><tspan x="0" y="86.4">0%</tspan><tspan x="0" y="129.6">0%</tspan></text><text class="cls-18" transform="translate(1324.04 253.63)"><tspan xml:space="preserve">C  :</tspan><tspan x="0" y="43.2">M </tspan><tspan class="cls-13" x="41.36" y="43.2"> </tspan><tspan class="cls-14" x="45.61" y="43.2">:</tspan><tspan x="0" y="86.4">J </tspan><tspan class="cls-15" x="28.69" y="86.4"> </tspan><tspan x="45.9" y="86.4">:</tspan><tspan x="-0.72" y="129.6" xml:space="preserve">N  :</tspan></text><text class="cls-16" transform="translate(1678.79 259.31)">209<tspan x="0" y="43.2">209</tspan><tspan x="0" y="86.4">209</tspan></text><text class="cls-16" transform="translate(1733.51 110.29)">#D1D0D1</text><text class="cls-17" transform="translate(1640.2 67.58)"><tspan class="cls-7">P</tspan><tspan class="cls-8" x="18.98" y="0">A</tspan><tspan x="37.95" y="0">TONE Cool Gray 2 C</tspan></text><text class="cls-18" transform="translate(1598.56 259.31)">R <tspan class="cls-10" x="34.67" y="0"> </tspan><tspan x="41.08" y="0">:</tspan><tspan x="0" y="43.2" xml:space="preserve">V  :</tspan><tspan x="0" y="86.4">B</tspan><tspan class="cls-11" x="24.66" y="86.4"> </tspan><tspan class="cls-12" x="41.15" y="86.4">:</tspan></text><text class="cls-16" transform="translate(1927.71 253.63)">21%<tspan x="0" y="43.2">16%</tspan><tspan x="0" y="86.4">16%</tspan><tspan x="0" y="129.6">1%</tspan></text><text class="cls-18" transform="translate(1839.43 253.63)"><tspan xml:space="preserve">C  :</tspan><tspan x="0" y="43.2">M </tspan><tspan class="cls-13" x="41.36" y="43.2"> </tspan><tspan class="cls-14" x="45.61" y="43.2">:</tspan><tspan x="0" y="86.4">J </tspan><tspan class="cls-15" x="28.69" y="86.4"> </tspan><tspan x="45.9" y="86.4">:</tspan><tspan x="-0.72" y="129.6" xml:space="preserve">N  :</tspan></text></svg>