<svg xmlns="http://www.w3.org/2000/svg" viewBox="0 0 88.19 107.9"><defs><style>.cls-1{fill:#f8cf4e;}.cls-2{fill:#2b3c4c;}.cls-3{fill:#fff;}.cls-4{fill:none;stroke:#2b3c4c;stroke-linecap:round;stroke-miterlimit:10;}</style></defs><title>happy</title><g id="Calque_2" data-name="Calque 2"><g id="Calque_1-2" data-name="Calque 1"><path class="cls-1" d="M82.81,63.87c0-21-17.49-38-39.07-38s-39.07,17-39.07,38c0,32.21,32.82,44,47.61,44a1.58,1.58,0,0,0,1.65-1.53v-5.81C70.56,96.19,82.81,81.44,82.81,63.87Z"/><path class="cls-2" d="M78.55,58c1.53-2.2,5.82-1.5,6.53,2.66.52,3-2.5,8.48-10.51,4.93-6.78-3-12.38-9.85-19.63-11.28C48.8,53.09,44.77,55.91,44.53,59c-.86,11.44,45.23,21.64,43.62,1.53C87.72,55.2,80.72,53.55,78.55,58Z"/><path class="cls-2" d="M9.65,58c-1.53-2.2-5.82-1.5-6.53,2.66-.52,3,2.5,8.48,10.51,4.93,6.78-3,12.38-9.85,19.63-11.28,6.14-1.21,10.17,1.61,10.41,4.7C44.52,70.44-1.57,80.64,0,60.53.47,55.2,7.47,53.55,9.65,58Z"/><path class="cls-2" d="M28.87,72.44c-.94,14.74,27.68,27.86,28.18-.56-5.44-1.5-11.3-4.58-13.38-7.49C41.33,68.06,32.4,71.73,28.87,72.44Z"/><path class="cls-3" d="M54.42,80.06c-.92-1.5-4.37-2.33-6.76.15.58-2.1-7.32-2.72-10.48,4C43.11,88.48,50.92,88.68,54.42,80.06Z"/><path class="cls-2" d="M83.32,32.49C75,41.93,59.37,36.8,56.4,26.6,63.16,40.11,86.83,40.11,83,19.79c0,0-.51,6.1-7.7,5.45C65,24.31,61,3.67,37.87.25c-17.7-2.62-32.14,16-21.06,36.07a39,39,0,0,1,3-2.52c-3.28-4.73-1.13-11.14,1.32-12.86a9.81,9.81,0,0,0,1,11.25c1.05-.68,2.14-1.32,3.27-1.91A6.66,6.66,0,0,1,26.71,24a7.06,7.06,0,0,0,.11,5.56q1.55-.73,3.17-1.32a3.8,3.8,0,0,1,1.26-2.4A3.85,3.85,0,0,0,30.62,28q1.84-.64,3.75-1.1c1.09-2.13,3.59-2.79,6.28-1.75C46,27.26,49.48,35.29,57,41c9.75,7.39,23.41,7.47,26.44-2A9.55,9.55,0,0,0,83.32,32.49Zm-32-21.12a34,34,0,0,0-5.57-3.57,22.81,22.81,0,0,0-6.17-2.07A52.11,52.11,0,0,0,33,5a13.18,13.18,0,0,1,6.83-.66,20.5,20.5,0,0,1,6.53,2.29,27.57,27.57,0,0,1,5.53,4,38.57,38.57,0,0,1,4.52,5.06C54.74,14.22,53.06,12.73,51.31,11.36ZM76.46,43.21a10.35,10.35,0,0,1-5,1.06,13.73,13.73,0,0,1-4.92-1,11.63,11.63,0,0,1-4.12-2.73,18.15,18.15,0,0,0,9,2.48A12.75,12.75,0,0,0,76,42.24a7.63,7.63,0,0,0,3.65-2.81A6,6,0,0,1,76.46,43.21Z"/><path class="cls-4" d="M25.6,49.21a12.42,12.42,0,0,1,4-1.5"/><path class="cls-4" d="M62.92,49.21a12.42,12.42,0,0,0-4-1.5"/></g></g></svg>