<svg id="Calque_1" data-name="Calque 1" xmlns="http://www.w3.org/2000/svg" viewBox="0 0 26.92 29.03"><defs><style>.cls-1{fill:#6699f1;}</style></defs><title>Plan de travail 1</title><path class="cls-1" d="M13.46,1.12a12.34,12.34,0,0,1,3.22,24.25l-.83.22v2.3c-4.28-.28-14.23-3.69-14.7-13.72,0-.24,0-.48,0-.72A12.35,12.35,0,0,1,13.46,1.12m0-1.12A13.46,13.46,0,0,0,0,13.46c0,.26,0,.52,0,.78C.53,25,11.42,29,16.4,29h0a.55.55,0,0,0,.57-.54v-2A13.46,13.46,0,0,0,13.46,0Z"/><path class="cls-1" d="M14.45,7.79a.6.6,0,0,0-.6.6v4.15A4.12,4.12,0,1,0,15,15.44v-7A.6.6,0,0,0,14.45,7.79ZM10.92,18.36a2.93,2.93,0,1,1,2.93-2.93A2.93,2.93,0,0,1,10.92,18.36Z"/><path class="cls-1" d="M19.94,12.67a.31.31,0,0,1,0,.63H16.8a.31.31,0,0,1-.31-.31.31.31,0,0,1,.06-.19l2.71-3.25H16.8a.31.31,0,0,1,0-.63h3.13a.31.31,0,0,1,.24.52l-2.71,3.24Z"/></svg>