<svg xmlns="http://www.w3.org/2000/svg" viewBox="0 0 103.7 25.48"><defs><style>.cls-1{fill:#fff;}</style></defs><title>logo_digitaleez_text-white</title><g id="Calque_2" data-name="Calque 2"><g id="Mode_Isolation" data-name="Mode Isolation"><path class="cls-1" d="M15.46,6.82a1,1,0,0,1,1.94,0V18.44a1,1,0,0,1-1.94,0Z"/><path class="cls-1" d="M34.78,6.82a1,1,0,0,1,1.94,0V18.44a1,1,0,0,1-1.94,0Z"/><path class="cls-1" d="M44.66,17.47a1,1,0,0,1,0,1.94q-4.84,0-4.84-4.84V6.3h-1a1,1,0,0,1-.68-1.65.93.93,0,0,1,.68-.28h1V2.5a1,1,0,0,1,1.94,0V4.37h1.95A1,1,0,0,1,44.39,6a.93.93,0,0,1-.68.28H41.76v8.26A2.57,2.57,0,0,0,44.66,17.47Z"/><path class="cls-1" d="M57.45,17.37a6.61,6.61,0,0,1-4.84,2,6.53,6.53,0,0,1-4.79-2,6.53,6.53,0,0,1-2-4.79,6.53,6.53,0,0,1,2-4.79,6.78,6.78,0,0,1,9.59,0,6.53,6.53,0,0,1,2,4.79v5.81a1,1,0,0,1-1.94,0ZM52.61,7.79a4.83,4.83,0,0,0-4.84,4.84,4.84,4.84,0,1,0,9.68,0,4.83,4.83,0,0,0-4.84-4.84Z"/><path class="cls-1" d="M76.16,14.21a1,1,0,0,1,1.29.47,1,1,0,0,1,0,.74,6.78,6.78,0,0,1-12.32.07,6.53,6.53,0,0,1-.23-5.18,6.78,6.78,0,0,1,12.51-.55A1,1,0,0,1,77,11.05l-9.58,4.47A4.86,4.86,0,0,0,73.35,17a4.57,4.57,0,0,0,2.34-2.36A1,1,0,0,1,76.16,14.21Zm-.95-4.47A4.85,4.85,0,0,0,66.75,11a4.65,4.65,0,0,0-.17,2.79Z"/><path class="cls-1" d="M90.41,14.21a1,1,0,0,1,1.29.47,1,1,0,0,1,0,.74,6.78,6.78,0,0,1-12.32.07,6.53,6.53,0,0,1-.23-5.18A6.78,6.78,0,0,1,91.7,9.77a1,1,0,0,1-.47,1.29l-9.58,4.47A4.86,4.86,0,0,0,87.6,17a4.57,4.57,0,0,0,2.34-2.36A1,1,0,0,1,90.41,14.21Zm-.95-4.47A4.85,4.85,0,0,0,81,11a4.65,4.65,0,0,0-.17,2.79Z"/><path class="cls-1" d="M32.87,12.63a6.53,6.53,0,0,0-2-4.79,6.78,6.78,0,0,0-9.59,0,6.53,6.53,0,0,0-2,4.79,6.53,6.53,0,0,0,2,4.79,6.78,6.78,0,0,0,9.56,0v1.6A4.83,4.83,0,0,1,28,23.11a4.48,4.48,0,0,1-5-.93,1,1,0,1,0-1.29,1.48,6.85,6.85,0,0,0,4.51,1.81,6.29,6.29,0,0,0,2.62-.58,6.77,6.77,0,0,0,4-5.84Zm-6.78,4.84a4.83,4.83,0,0,1-4.84-4.84,4.84,4.84,0,0,1,8.27-3.42,4.67,4.67,0,0,1,1.42,3.42,4.83,4.83,0,0,1-4.84,4.84Z"/><path class="cls-1" d="M61.92,19.45a1,1,0,0,1-1-1V1a1,1,0,1,1,2,0V18.47A1,1,0,0,1,61.92,19.45Z"/><path class="cls-1" d="M12.56.07a1,1,0,0,0-1,1V7.88a6.77,6.77,0,1,0,2,4.76V1A1,1,0,0,0,12.56.07ZM6.77,17.44a4.81,4.81,0,1,1,4.81-4.81A4.82,4.82,0,0,1,6.77,17.44Z"/><path class="cls-1" d="M102.72,17.49a1,1,0,0,1,0,1.94H93a1,1,0,0,1-1-1,1,1,0,0,1,.19-.59l8.41-10.09H93a1,1,0,0,1-.69-1.66A.94.94,0,0,1,93,5.83h9.71a1,1,0,0,1,.74,1.6L95.08,17.49Z"/></g></g></svg>