<svg id="Mode_Isolation" data-name="Mode Isolation" xmlns="http://www.w3.org/2000/svg" viewBox="0 0 60.04 64.76"><defs><style>.cls-1{fill:#f8cf4e;}.cls-2{fill:#fff;}</style></defs><title>Plan de travail 1</title><path class="cls-1" d="M60,30A30,30,0,1,0,0,30c0,.59,0,1.17.05,1.75,1.13,24.09,25.43,33,36.53,33a1.23,1.23,0,0,0,1.27-1.21V59A30,30,0,0,0,60,30Z"/><path class="cls-2" d="M34.23,21.65a1.45,1.45,0,0,0-1.45,1.45V34.85a3.39,3.39,0,0,1-6.77,0v-12a1.45,1.45,0,1,0-2.9,0v12a3.39,3.39,0,1,1-6.77,0v-12a1.45,1.45,0,1,0-2.9,0v12a6.28,6.28,0,0,0,11.12,4,6.28,6.28,0,0,0,11.12-4V23.1A1.45,1.45,0,0,0,34.23,21.65Z"/><path class="cls-2" d="M39,21.82a.74.74,0,0,0,0,1.05l3.91,3.91L39,30.69a.74.74,0,1,0,1.05,1.05l4.43-4.43V26.25l-4.43-4.43A.74.74,0,0,0,39,21.82Z"/><path class="cls-2" d="M45,26.77l3.91-3.91a.74.74,0,0,0-1.05-1.05l-4.43,4.43V27.3l4.43,4.43a.74.74,0,0,0,1.05-1.05Z"/></svg>