<svg xmlns="http://www.w3.org/2000/svg" viewBox="0 0 170.66 23.25"><defs><style>.cls-1{fill:#fff;}</style></defs><title>logo_wexperience-text-white</title><g id="Calque_2" data-name="Calque 2"><g id="Calque_1-2" data-name="Calque 1"><path class="cls-1" d="M33.49,10.07a1.16,1.16,0,0,1,1.54.56,1.15,1.15,0,0,1,0,.89,7.8,7.8,0,0,1-4,4A8.12,8.12,0,0,1,20.32,11.6,7.82,7.82,0,0,1,20,5.39,7.82,7.82,0,0,1,24.25.81,7.83,7.83,0,0,1,30.46.54,7.83,7.83,0,0,1,35,4.74a1.16,1.16,0,0,1-.56,1.54L23,11.63a5.83,5.83,0,0,0,7.13,1.8,5.47,5.47,0,0,0,2.81-2.83A1.15,1.15,0,0,1,33.49,10.07ZM32.36,4.71a5.83,5.83,0,0,0-7.13-1.8,5.59,5.59,0,0,0-3,3.27A5.58,5.58,0,0,0,22,9.53Z"/><path class="cls-1" d="M55.5,22.09a1.16,1.16,0,0,1-2.32,0V8.17a7.82,7.82,0,0,1,2.38-5.74A8.12,8.12,0,0,1,67,2.43a7.83,7.83,0,0,1,2.38,5.74A7.82,7.82,0,0,1,67,13.91a8.12,8.12,0,0,1-11.49,0l-.06-.06Zm0-13.92a5.59,5.59,0,0,0,1.7,4.1,5.81,5.81,0,0,0,8.21,0,5.59,5.59,0,0,0,1.7-4.1,5.59,5.59,0,0,0-1.7-4.1,5.81,5.81,0,0,0-8.21,0A5.59,5.59,0,0,0,55.5,8.17Z"/><path class="cls-1" d="M85.08,10.07a1.16,1.16,0,0,1,1.54.56,1.15,1.15,0,0,1,0,.89,7.8,7.8,0,0,1-4,4A8.12,8.12,0,0,1,71.9,11.6a7.82,7.82,0,0,1-.27-6.21A7.82,7.82,0,0,1,75.83.81,7.83,7.83,0,0,1,82,.54a7.83,7.83,0,0,1,4.58,4.2,1.16,1.16,0,0,1-.56,1.54L74.59,11.63a5.83,5.83,0,0,0,7.13,1.8,5.47,5.47,0,0,0,2.81-2.83A1.15,1.15,0,0,1,85.08,10.07ZM83.94,4.71A5.82,5.82,0,0,0,73.81,6.19a5.58,5.58,0,0,0-.2,3.34Z"/><path class="cls-1" d="M88.52,8.17A7.89,7.89,0,0,1,96.64,0a8.18,8.18,0,0,1,3.12.58,1.5,1.5,0,0,1,.48.3,1.15,1.15,0,0,1,.33.83,1.12,1.12,0,0,1-.34.82,1.16,1.16,0,0,1-1.33.22,5.76,5.76,0,0,0-2.26-.44,5.59,5.59,0,0,0-4.1,1.7,5.59,5.59,0,0,0-1.7,4.1v7a1.16,1.16,0,0,1-2.32,0Z"/><path class="cls-1" d="M102.41,1.21a1.12,1.12,0,0,1,.34-.82,1.15,1.15,0,0,1,1.64,0,1.12,1.12,0,0,1,.34.82V15.13a1.16,1.16,0,0,1-2.32,0Z"/><path class="cls-1" d="M120.36,10.07a1.16,1.16,0,0,1,1.54.56,1.15,1.15,0,0,1,0,.89,7.8,7.8,0,0,1-4,4,8.12,8.12,0,0,1-10.79-3.93,7.82,7.82,0,0,1-.27-6.21,7.82,7.82,0,0,1,4.2-4.58,7.83,7.83,0,0,1,6.21-.27,7.83,7.83,0,0,1,4.58,4.2,1.16,1.16,0,0,1-.56,1.54l-11.47,5.35a5.83,5.83,0,0,0,7.13,1.8,5.47,5.47,0,0,0,2.81-2.83A1.15,1.15,0,0,1,120.36,10.07Zm-1.14-5.36A5.82,5.82,0,0,0,109.1,6.19a5.58,5.58,0,0,0-.2,3.34Z"/><path class="cls-1" d="M123.8,7.65a7.75,7.75,0,0,1,2.32-5.5,7.53,7.53,0,0,1,10.55.11,7.27,7.27,0,0,1,2.21,5.33v7.54a1.16,1.16,0,0,1-2.32,0V7.59A5,5,0,0,0,135,3.9a5.22,5.22,0,0,0-7.38,0,5,5,0,0,0-1.53,3.69v7.54a1.16,1.16,0,0,1-2.32,0Z"/><path class="cls-1" d="M153.23,12.32a1.16,1.16,0,0,1,1.16,1.16,1.2,1.2,0,0,1-.36.86,8.13,8.13,0,0,1-11-.42,7.82,7.82,0,0,1-2.38-5.74A7.82,7.82,0,0,1,143,2.43,8.13,8.13,0,0,1,154,2a1.16,1.16,0,0,1,.41.9,1.16,1.16,0,0,1-1.16,1.16,1.13,1.13,0,0,1-.74-.26,5.78,5.78,0,0,0-7.9.26,5.59,5.59,0,0,0-1.7,4.1,5.59,5.59,0,0,0,1.7,4.1,5.78,5.78,0,0,0,7.89.28A1.14,1.14,0,0,1,153.23,12.32Z"/><path class="cls-1" d="M169,10.07a1.16,1.16,0,0,1,1.54.56,1.15,1.15,0,0,1,0,.89,7.8,7.8,0,0,1-4,4,8.12,8.12,0,0,1-10.79-3.93,7.82,7.82,0,0,1-.27-6.21,7.82,7.82,0,0,1,4.2-4.58A7.83,7.83,0,0,1,166,.54a7.83,7.83,0,0,1,4.58,4.2A1.16,1.16,0,0,1,170,6.28l-11.47,5.35a5.83,5.83,0,0,0,7.13,1.8,5.47,5.47,0,0,0,2.81-2.83A1.15,1.15,0,0,1,169,10.07Zm-1.14-5.36a5.82,5.82,0,0,0-10.13,1.47,5.58,5.58,0,0,0-.2,3.34Z"/><path class="cls-1" d="M16.81.59a1.17,1.17,0,0,0-1.17,1.17v9.5a2.74,2.74,0,0,1-5.48,0V1.56a1.17,1.17,0,1,0-2.35,0v9.7a2.74,2.74,0,0,1-5.47,0V1.56A1.17,1.17,0,1,0,0,1.56v9.7a5.08,5.08,0,0,0,9,3.24,5.08,5.08,0,0,0,9-3.24V1.76A1.17,1.17,0,0,0,16.81.59Z"/><path class="cls-1" d="M35.61.35a1.17,1.17,0,0,0,0,1.66l6.16,6.16-6.16,6.16A1.17,1.17,0,1,0,37.27,16l7-7V7.34l-7-7A1.17,1.17,0,0,0,35.61.35Z"/><path class="cls-1" d="M45.07,8.16,51.23,2A1.17,1.17,0,0,0,49.57.34l-7,7V9l7,7a1.17,1.17,0,1,0,1.66-1.66Z"/></g></g></svg>