<svg id="Calque_1" data-name="Calque 1" xmlns="http://www.w3.org/2000/svg" viewBox="0 0 755.28 206.07"><defs><style>.cls-1{fill:#6bca9d;}.cls-2,.cls-3,.cls-4,.cls-5{fill:none;stroke-linecap:round;}.cls-2,.cls-5{stroke:#6bca9d;}.cls-2,.cls-3,.cls-4{stroke-linejoin:bevel;stroke-width:4px;}.cls-3{stroke:#13113c;}.cls-4{stroke:#fff;}.cls-5{stroke-miterlimit:10;stroke-width:3px;}.cls-6{font-size:91.74px;font-family:Montserrat-ExtraBold, Montserrat;}.cls-7{font-weight:700;}.cls-8{font-size:45.87px;font-family:Montserrat-MediumItalic, Montserrat;font-style:italic;}.cls-9{letter-spacing:-0.02em;}.cls-10{letter-spacing:-0.02em;}</style></defs><title>logo-ariane_black</title><path class="cls-1" d="M169.88,80.06c-.58.3-1.14.63-1.7,1l-1.22.24c0,.19,0,.4.06.59a17.61,17.61,0,0,0-6.8,15C89.84,131.79,54.82,136,37.76,129.38l.08-.21a85.67,85.67,0,0,1-3.32-15.49,88.44,88.44,0,1,1,176.22-10.84c0,48.85-32.56,88.45-88.44,88.45a88,88,0,0,1-48.46-14.45c42.87-7.94,96.43-62,98.08-63.8L172,113l.14-.42a17.6,17.6,0,0,0,13.22-.66c.31.2.62.41.95.59l1.28-1.84a17.7,17.7,0,0,0-17.68-30.6Z"/><path class="cls-1" d="M37.84,129.17l-.08.21c-21.29-8.21-14.59-33.11-13.68-35.7-.13.9-1.8,14.16,9.77,20.08l.67-.08A85.67,85.67,0,0,0,37.84,129.17Z"/><path class="cls-2" d="M73.84,176.83h0a88,88,0,0,0,48.46,14.45c55.88,0,88.44-39.6,88.44-88.45A88.45,88.45,0,1,0,34.52,113.68a85.67,85.67,0,0,0,3.32,15.49"/><path class="cls-3" d="M167,81.88c0-.19,0-.4-.06-.59l1.22-.24"/><path class="cls-2" d="M160.22,96.89a17.61,17.61,0,0,1,6.8-15c.38-.3.76-.57,1.16-.83"/><path class="cls-2" d="M187.56,110.66a16.28,16.28,0,0,1-2.23,1.25,17.6,17.6,0,0,1-13.22.66"/><polyline class="cls-4" points="170.16 80 169.88 80.06 130.95 87.96"/><line class="cls-4" x1="164.5" y1="143.56" x2="186.28" y2="112.5"/><polyline class="cls-2" points="183.65 92.07 173.09 98.99 163.07 105.54 134.56 124.21"/><path class="cls-2" d="M24.09,93.64a.1.1,0,0,1,0,0c-.91,2.59-7.61,27.49,13.68,35.7,17.06,6.57,52.08,2.41,122.46-32.49"/><path class="cls-2" d="M33.85,113.76c-11.57-5.92-9.9-19.18-9.77-20.08"/><path class="cls-2" d="M73.84,176.84c42.87-7.94,96.43-62,98.08-63.8L172,113a.17.17,0,0,0-.05.05.43.43,0,0,0-.07.07"/><path class="cls-2" d="M168.18,81.05c.56-.36,1.12-.69,1.7-1a17.7,17.7,0,0,1,17.68,30.6l-1.28,1.84c-.33-.18-.64-.39-.95-.59a42.3,42.3,0,0,1-11.64-12l-.6-1A40.58,40.58,0,0,1,167,81.88"/><path class="cls-5" d="M174.6,84.45a8.48,8.48,0,0,1,8.22-.55,9.11,9.11,0,0,1,3.84,3.33"/><text class="cls-6" transform="translate(230.32 112.45) scale(0.96 1)"><tspan class="cls-7">ARIANE.</tspan><tspan class="cls-8"><tspan class="cls-9" x="0" y="55.04">A</tspan><tspan x="33.12" y="55.04">gen</tspan><tspan class="cls-10" x="121.23" y="55.04">c</tspan><tspan x="147.1" y="55.04">e 360°</tspan></tspan></text></svg>